<svg viewBox="0 -11 70 70" fill="none" xmlns="http://www.w3.org/2000/svg"><g id="SVGRepo_bgCarrier" stroke-width="0"></g><g id="SVGRepo_tracerCarrier" stroke-linecap="round" stroke-linejoin="round"></g><g id="SVGRepo_iconCarrier"> <rect x="0.5" y="0.5" width="69" height="47" rx="5.5" fill="white" stroke="#ffffff"></rect> <path fill-rule="evenodd" clip-rule="evenodd" d="M56.192 27.8963H57.9186H57.9201C58.1007 27.8997 58.2508 27.7548 58.2574 27.5705V22.6835C58.2574 22.0697 58.2896 21.5153 58.5319 20.961C58.6982 20.5394 59.09 20.2555 59.5347 20.2345C60.6391 20.2345 60.6285 21.4703 60.6201 22.4412C60.6194 22.5231 60.6187 22.6031 60.6187 22.6803V27.6112C60.6401 27.7694 60.7692 27.8894 60.9254 27.8963H62.6673C62.8324 27.8998 62.9747 27.7779 63 27.6112V21.8974C63 21.019 63 19.796 62.5477 19.0695C62.0585 18.2866 61.3011 18 60.5252 18C59.3292 18 58.65 18.5919 58.1654 19.8336H58.1317V18.4447C58.0967 18.2995 57.9714 18.1958 57.825 18.191H56.2181C56.0483 18.1868 55.9037 18.3161 55.8854 18.4885V27.5705C55.8876 27.7446 56.0217 27.8871 56.192 27.8963ZM54.5668 23.1329C54.5668 20.2674 53.176 18.0125 50.6047 18.0125C48.0992 18.0125 46.7085 20.2298 46.7085 23.0374C46.7085 25.8449 48.0823 28.0998 50.6047 28.0998C53.0335 28.0998 54.5668 25.9029 54.5668 23.1329ZM49.263 22.7508C49.263 21.6422 49.3442 19.8665 50.6215 19.8665C51.1704 19.8665 51.5584 20.1186 51.7531 20.7449C51.98 21.4699 52.0122 22.3875 52.0122 23.1517C52.0122 24.3166 51.9616 26.227 50.6046 26.227C49.2624 26.227 49.2628 23.9108 49.263 22.7875L49.263 22.7508ZM16.8639 27.9151H18.595H18.5966C18.6834 27.9171 18.7676 27.8837 18.8303 27.8223C18.893 27.7609 18.9292 27.6764 18.9308 27.5877V22.7758L18.9308 22.7005C18.9301 21.6542 18.9291 20.2705 20.1268 20.2705C21.234 20.2705 21.2169 21.4863 21.2031 22.4681V22.4682V22.4682V22.4682V22.4683C21.2016 22.5741 21.2001 22.6772 21.2001 22.7758V27.5893C21.2031 27.7631 21.3368 27.9051 21.5068 27.9151H23.2425C23.3291 27.9166 23.4129 27.8831 23.4753 27.8217C23.5377 27.7603 23.5736 27.6762 23.5753 27.5877V22.7758L23.5751 22.6614C23.5741 22.1516 23.5726 21.4636 23.7378 21.0362C23.9062 20.5992 24.3132 20.3067 24.7728 20.2924C25.2742 20.2924 25.6621 20.4646 25.7909 21.0753C25.8567 21.3692 25.8481 22.0506 25.8425 22.5024C25.8412 22.609 25.84 22.7029 25.84 22.7758V27.5893C25.8422 27.7634 25.9763 27.9059 26.1466 27.9151H27.8778C27.9647 27.9171 28.0488 27.8837 28.1115 27.8223C28.1742 27.7609 28.2104 27.6764 28.212 27.5877V21.8582C28.212 21.7186 28.2144 21.5759 28.2168 21.4317L28.2168 21.4315C28.231 20.576 28.246 19.6654 27.775 19.0115C27.2041 18.2699 26.2859 17.9003 25.3729 18.0447C24.46 18.1891 23.6943 18.825 23.3698 19.7083C22.8837 18.5606 22.1891 18.0266 21.1219 18.0266C20.0547 18.0266 19.262 18.5606 18.8419 19.7083H18.8097V18.523C18.8006 18.354 18.6685 18.2191 18.503 18.2098H16.8884C16.7101 18.208 16.5631 18.3519 16.5572 18.5339V27.6159C16.5729 27.7793 16.7033 27.9065 16.8639 27.9151ZM13.8509 27.9839C13.7369 28.0849 13.573 28.1018 13.4415 28.0262C12.9509 27.6093 12.803 27.384 12.5758 27.038C12.5368 26.9784 12.4953 26.9154 12.4494 26.8471C11.4972 27.8367 10.8241 28.1327 9.59285 28.1327C8.13466 28.1327 7 27.2135 7 25.3752C7 23.9393 7.76666 22.9638 8.83999 22.4846C9.63255 22.1295 10.69 22.0192 11.6043 21.9239L11.6043 21.9239L11.6043 21.9239C11.7743 21.9062 11.9393 21.889 12.0968 21.8708V21.6422C12.0968 21.5986 12.0971 21.5541 12.0975 21.509C12.1005 21.1192 12.1039 20.6852 11.8867 20.3582C11.6751 20.0325 11.2734 19.8994 10.9146 19.8994C10.2537 19.8994 9.66492 20.2455 9.52079 20.9611C9.50252 21.128 9.37674 21.2616 9.21412 21.2868L7.54893 21.1004C7.46584 21.0883 7.39125 21.0419 7.34258 20.972C7.2939 20.9022 7.27537 20.815 7.29133 20.7309C7.6762 18.6514 9.51619 18.0235 11.1645 18.0235C12.0078 18.0235 13.1088 18.2521 13.7712 18.9035C14.5488 19.647 14.5439 20.6203 14.5387 21.6839C14.5383 21.7717 14.5378 21.8601 14.5378 21.9491V24.7034C14.5378 25.4452 14.8073 25.8142 15.0912 26.2029C15.1249 26.2491 15.1589 26.2955 15.1926 26.3429C15.303 26.4995 15.3275 26.6952 15.1926 26.8126C14.8384 27.1149 14.2097 27.6723 13.8647 27.987L13.8509 27.9839ZM12.1044 23.6715L12.1045 23.7573C12.1051 24.4086 12.1056 24.9609 11.7809 25.5505C11.5049 26.0485 11.0679 26.3554 10.5803 26.3554C9.91635 26.3554 9.52842 25.8387 9.52842 25.0714C9.52842 23.565 10.8517 23.291 12.1044 23.291V23.6715ZM37.7935 26.1964C37.8273 26.2426 37.8612 26.2892 37.895 26.3366C38.0115 26.4995 38.036 26.6905 37.8873 26.7985C37.5331 27.1007 36.9045 27.6597 36.5595 27.9729C36.4447 28.0725 36.2814 28.0888 36.1501 28.0136C35.6573 27.595 35.5114 27.373 35.281 27.0224L35.2809 27.0223L35.2804 27.0215C35.2421 26.9632 35.2014 26.9014 35.1565 26.8345C34.2058 27.8242 33.5281 28.1201 32.3014 28.1201C30.8432 28.1201 29.7086 27.201 29.7086 25.3642C29.7086 23.9268 30.4706 22.9512 31.5562 22.4721C32.3505 22.1156 33.4139 22.0058 34.3308 21.9112L34.3309 21.9112L34.3312 21.9112L34.3313 21.9112C34.4975 21.894 34.6589 21.8774 34.813 21.8598V21.6359C34.813 21.5925 34.8133 21.5482 34.8137 21.5034C34.8167 21.1135 34.8201 20.6793 34.6014 20.3535C34.3959 20.0278 33.9865 19.8931 33.6293 19.8931C32.9684 19.8931 32.3827 20.2392 32.237 20.9548C32.2182 21.1215 32.0927 21.2548 31.9303 21.2805L30.2514 21.0957C30.1677 21.084 30.0924 21.0375 30.0434 20.9673C29.9943 20.897 29.9758 20.8092 29.9922 20.7246C30.3786 18.6436 32.2186 18.0172 33.8669 18.0172C34.7087 18.0172 35.8097 18.2458 36.4736 18.8972C37.2528 19.6369 37.2473 20.6026 37.2413 21.6608L37.2413 21.6617C37.2408 21.7547 37.2403 21.8485 37.2403 21.9428V24.6987C37.2403 25.439 37.5097 25.8078 37.7935 26.1964ZM33.2919 26.346C33.778 26.346 34.2165 26.0391 34.491 25.5427C34.8168 24.9498 34.8165 24.3949 34.8161 23.7354L34.8161 23.6652V23.2832C33.5633 23.2832 32.2401 23.5556 32.2401 25.0635C32.2401 25.8292 32.628 26.346 33.2919 26.346ZM39.3608 18.5026V19.796C39.3599 19.8847 39.3946 19.97 39.4569 20.0318C39.5192 20.0936 39.6036 20.1267 39.6904 20.1233H42.6712L39.2534 25.134C39.0974 25.4028 39.0237 25.7131 39.0418 26.025V27.3481C39.0418 27.5392 39.2488 27.7568 39.4466 27.6488C41.3317 26.6506 43.5733 26.6465 45.4619 27.6378C45.6781 27.7521 45.882 27.5313 45.882 27.3403V25.9498C45.8762 25.7372 45.7591 25.5441 45.5753 25.444C44.5802 24.8725 43.4225 24.705 42.3277 24.7316L45.2779 20.4317C45.5523 20.0465 45.7057 19.8023 45.7057 19.6159V18.5026C45.7065 18.4142 45.672 18.3292 45.61 18.2674C45.5481 18.2056 45.4641 18.1724 45.3775 18.1754H39.6843C39.5976 18.1704 39.513 18.2032 39.4513 18.2655C39.3896 18.3279 39.3567 18.4141 39.3608 18.5026Z" fill="#000000"></path> <path fill-rule="evenodd" clip-rule="evenodd" d="M42.208 33.6898C42.6021 32.6892 43.4791 30.4469 43.0621 29.9035H43.0651C42.6499 29.359 40.3192 29.6448 39.2708 29.7733L39.2686 29.7736C38.9497 29.8127 38.9006 29.5293 39.1873 29.3242C41.0488 27.9885 44.0986 28.3706 44.4528 28.8215C44.807 29.2725 44.3562 32.3948 42.6128 33.8855C42.3445 34.1141 42.0884 33.992 42.208 33.6898ZM29.6822 35.2337C33.7364 35.2337 38.4575 33.9263 41.7096 31.4757V31.4804C42.2478 31.067 41.7863 30.4595 41.2374 30.6975C37.6875 32.2266 33.8769 33.0248 30.0242 33.0462C24.679 33.0462 19.5086 31.5493 15.3257 29.0643C14.9593 28.8466 14.6863 29.2303 14.993 29.5105C19.02 33.2209 24.2585 35.262 29.6822 35.2337Z" fill="#FF9900"></path> </g></svg>