<svg xmlns="http://www.w3.org/2000/svg"  viewBox="0 0 333333 333333" shape-rendering="geometricPrecision" text-rendering="geometricPrecision" image-rendering="optimizeQuality" fill-rule="evenodd" clip-rule="evenodd"><path d="M311797 124991h-18689c-11442 0-21481-9689-22269-20834C270839 44697 222902-10 163028-10l-54630-2C48564-12 42 48177-1 107631v118107c0 59460 48565 107606 108399 107606h116663c59872 0 108269-48148 108269-107606l2-76290c0-11880-9584-24446-21548-24446l12-12zM104163 83327h62504c11454 0 20834 9381 20834 20834 0 11454-9381 20836-20834 20836l-62504-6c-11454 0-20834-9381-20834-20834 0-11460 9381-20836 20834-20836v6zm125009 166661H104163c-11454 0-20834-9376-20834-20834 0-11454 9381-20836 20834-20836l125009 12c11454 0 20834 9376 20834 20834 0 11454-9381 20836-20834 20836v-12z" fill="#f57d00"/></svg>