<svg viewBox="0 0 500 500" enable-background="new 0 0 500 500" id="Layer_1" version="1.1" xml:space="preserve" xmlns="http://www.w3.org/2000/svg" xmlns:xlink="http://www.w3.org/1999/xlink" fill="#000000"><g id="SVGRepo_bgCarrier" stroke-width="0"></g><g id="SVGRepo_tracerCarrier" stroke-linecap="round" stroke-linejoin="round"></g><g id="SVGRepo_iconCarrier"> <g> <path d="M427.128,140.521c-29.083-12.961-21.265-16.899-54.039-9.671c0.837-7.367,17.756-49.81,10.48-50.571 c-10.472-4.658-21.921-15.084-33.388-15.099c-16.38,3.639-32.781,7.177-49.156,10.829c-7.518,2.847-22.145,2.144-25.542,10.235 c-5.469,20.215-10.311,40.591-15.742,60.814c-0.237,0.881-0.59,1.238-1.496,1.343c-8.951,1.377-17.696,2.519-26.807,3.665 c0.603-6.959,12.058-36.449,6.129-38.651c-9.87-4.984-19.476-13.368-30.408-14.967c-14.764,3.713-29.732,6.621-44.222,11.418 c-4.242,2.06-4.05,8.155-5.809,12.046c-4.07,13.639-7.956,27.33-11.463,41.125c-0.212,0.835-0.56,1.22-1.4,1.329 c-6.734,2.263-27.164,1.974-28.96,9.011c-4.641,18.686-9.987,37.205-13.783,56.091c27.498,31.091,26.042-2.102,11.823,60.81 c-0.324,1.354-0.764,1.675-2.076,1.682c-4.702,0.776-26.697-1.702-26.386,3.387c-4.738,19.32-9.681,38.608-13.77,58.073 c-0.242,1.4-0.052,2.396,1.286,3.332c28.318,18.728,18.676,6.637,13.13,44.471c-0.975,2.935,2.406,3.751,4.362,4.98 c23.222,12.018,25.634,15.896,52.788,15.279c4.832-0.668,17.727,2.557,19.883-2.343c3.701-14.247,7.43-28.487,11.105-42.74 c1.929-2.855,19.852,0.593,24.674,0.039c1.058,0.052,1.359,0.31,1.065,1.462c-2.838,11.422-5.351,22.924-8.064,34.376 c23.734,23.805,63.189,18.242,94.904,22.369c6.14,3.455,14.345-45.23,17.513-51.693c0.308-1.158,0.837-1.331,1.885-1.312 c12.617,0.222,25.237,0.219,37.855,0.143c6.715-0.473,16.262,1.995,17.37-7.131c4.51-14.133,8.339-28.465,12.446-42.716 c0.721-5.995,9.787-26.227,6.637-29.557c-9.637-6.048-19.613-12.252-29.879-16.944c-2.421-0.789-20.319,1.489-18.455-1.496 c5.604-17.102,8.135-37.062,15.174-52.797c18.431-1.154,36.765-3.476,55.191-4.633c2.373,0.204,2.775-2.667,3.443-4.391 c7.866-26.021,16.629-51.773,23.402-78.122C429.267,142.289,428.745,141.219,427.128,140.521z M225.782,291.627h-31.677 l11.685-52.904l33.499-0.558L225.782,291.627z" fill="#3F3756"></path> <path d="M371.855,210.561l25.25-81.772l-62.375,9.556l18.375-71.125l-74.667,16.542l-18.053,66l-66.091,8.667 l14.811-58.333l-47.167,11.667l-15.333,54.249l-29.167,5.751L103.73,229.22l27.375-1l-17.375,65.187l-27.375,1.188l-14.25,60.473 l24.625,1.527l-9.875,46.779l44.155,1.596l11.72-45.875l63.125,2.882l-12.75,50.829l64.75,3.664l15.713-52.332l52.871,2.218 l23.867-79.198l-56.534,0.938l19.333-74L371.855,210.561z M245.843,222.116c-7.147,22.764-12.168,46.279-19.646,68.916 c-2.055,4.733-26.389,1.311-32.519,2.27c-4.927-1.389-39.166,4.208-35.171-2.739c6.069-21.992,9.656-44.696,16.47-66.437 c19.08-4.03,38.986-3.647,58.368-5.929C237.471,218.404,248.229,214.282,245.843,222.116z" fill="#d44eb1"></path> <path d="M400.349,222.985c-8.476-4.143-17.109-7.894-25.757-11.651c-0.91-0.396-0.99-0.785-0.698-1.695 c8.518-26.471,16.914-53.689,24.33-80.152c8.686,4.18,17.638,9.17,26.501,13.332c0.573,0.281,1.08,0.429,0.767,1.304 C416.373,170.08,408.991,196.976,400.349,222.985z" fill="#fe0bf6"></path> <path d="M377.177,303.745c-5.654,20.249-11.779,40.393-17.62,60.592c-1.378,2.319-2.08,12.66-4.861,11.836 c-8.609-3.238-17.228-6.448-25.866-9.603c-2.173-1.633,3.688-13.932,3.975-17.395c6.115-19.882,10.819-40.226,17.999-59.761 c0.437-1.168,0.958-0.681,1.559-0.338C360.334,294.173,370.011,298.123,377.177,303.745z" fill="#fe0bf6"></path> <path d="M314.844,287.919c-2.57-0.753-20.476,1.679-18.955-0.645c5.5-21.208,11.11-42.386,16.501-63.621 c1.074-1.828,0.867-9.496,3.387-8.533c8.543,4.459,17.366,8.342,26.013,12.587c2.975,0.478-5.725,19.919-5.832,23.834 c-3.337,11.713-6.54,23.463-9.44,35.292c-1.552,2.531-8.661,0.404-11.675,1.074C314.844,287.912,314.844,287.916,314.844,287.919z" fill="#f50000"></path> <path d="M337.554,137.876c-2.612-0.766-1.128-4.268-0.523-6.076c6.189-20.479,11.777-41.13,17.347-61.785 c0.274-1.033,0.532-1.374,1.645-0.779c8.654,4.623,17.337,9.195,26.03,13.745c0.79,0.413,0.808,0.838,0.537,1.556 c-5.687,15.341-9.745,31.192-14.225,46.905c-0.29,1.167-0.963,1.521-2.057,1.694C356.679,134.742,347.18,136.102,337.554,137.876z" fill="#f50000"></path> <path d="M228.157,284.773c52.259-51.105,106.282-100.59,158.006-152.191c3.471-0.685,6.945-1.359,10.412-2.067 c1.358-0.181,0.154,2.012,0.103,2.703c-8.45,24.718-15.763,49.801-23.266,74.818c-0.444,1.503-1.568,0.905-2.489,1.008 c1.982-14.589,9.304-28.23,12.515-42.868c-13.124,12.753-26.12,25.809-39.1,38.78c-3.246,3.578-6.239,7.857-11.666,7.121 c15.289-19.388,36.353-36.138,52.809-55.322c-15.404,15.403-30.702,30.927-46.329,46.108c-5.056,4.499-8.995,11.356-16.708,9.873 c12.706-15.371,27.916-29.205,41.651-43.852c9.904-11.947,25.252-20.333,28.8-36.139 C342.314,174.536,272.691,253.605,228.157,284.773z" fill="#df6dd0"></path> <path d="M301.515,378.368c-4.536,17.605-9.344,35.038-14.37,52.498c-0.226,0.802-0.521,0.795-1.148,0.427 c-8.48-4.965-17.174-9.537-25.886-14.074c-0.703-0.366-0.933-0.762-0.714-1.563c4.542-16.137,8.08-32.62,13.782-48.386 c0.335-0.919,0.765-1.216,1.795-0.746C283.672,370.674,292.965,374.274,301.515,378.368z" fill="#f50000"></path> <path d="M196.744,158.415c-1.051,0.134-1.229-0.393-1.002-1.275c4.693-18.325,9.4-36.649,14.083-54.975 c0.204-0.93,0.605-0.917,1.387-0.561c8.38,4.385,16.3,9.59,24.675,14.029c0.685,0.384,1.187,0.602,0.932,1.679 c-2.711,11.457-5.411,22.917-8.445,34.295c-0.764,2.866-0.768,2.769-3.756,3.139C215.341,156.059,206.065,157.404,196.744,158.415z " fill="#f50000"></path> <path d="M177.434,362.117c35.552-37.551,79.951-69.794,119.108-104.707c4.399-5.911,9.062-44.638,16.416-43.65 c-7.02,25.066-16.249,51.673-20.215,77.131c-4.921,0.549,0.257-13.414,0.484-16.552c-34.507,28.348-66.746,63.372-102.501,88.336 c29.653-29.539,65.191-56.878,96.556-85.511c4.139-3.157,7.494-6.046,7.48-11.725c-36.846,32.618-73.624,65.253-111.237,96.95 C181.493,362.326,179.448,362.555,177.434,362.117z" fill="#df6dd0"></path> <path d="M159.338,418.428c-8.833-4.455-17.728-8.682-26.627-12.988c-0.739-0.356-1.201-0.636-0.875-1.671 c4.165-13.607,7.267-27.505,10.925-41.253c0.237-0.983,0.59-1.042,1.401-0.722c8.891,3.688,18.056,6.754,26.813,10.72 c0.703,0.389,1.079,0.729,0.749,1.637C166.773,388.71,163.474,403.564,159.338,418.428z" fill="#f50000"></path> <path d="M80.511,354.264c25.101-20.992,49.534-43.263,75.145-63.715c6.394-21.024,11.516-44.284,17.025-65.987 c-16.98,13.991-33.262,30.613-50.664,44.668c2.826-9.279,17.119-16.734,23.74-24.376c17.774-16.161,35.883-31.949,53.695-48.066 c12.421-11.22,24.837-22.443,37.135-33.798c6.198-4.572,10.632-13.307,19.09-12.937c-25.348,23.993-57.026,47.399-79.266,72.06 c-4.95,23.072-13.27,47.383-15.806,70.317c0.715,2.887-5.249,5.896-7.012,8.179c-17.241,15.253-34.742,30.206-52.175,45.238 C93.304,352.589,92.113,356.538,80.511,354.264z" fill="#df6dd0"></path> <path d="M124.258,251.221c33.581-31.664,68.268-62.133,102.563-93.011c3.322-3.929,8.534-3.516,13.24-4.035 c2.019,2.268-6.72,7.662-8.128,9.925c-36.665,31.363-71.298,67.605-109.965,95.991C122.597,257.1,123.376,254.147,124.258,251.221z " fill="#DE746B"></path> <path d="M240.91,217.699c29.43-28.24,59.584-55.89,90.513-82.436c4.843-21.886,11.478-44.422,16.466-66.648 c1.208-0.278,2.416-0.557,3.863-0.891c-5.954,22.97-13.034,45.648-17.628,68.928c-0.302,2.167,0.289,3.126,2.142,3.402 c-27.896,27.562-59.322,53.102-89.26,78.803C246.216,219.782,241,217.8,240.91,217.699z" fill="#DE746B"></path> <path d="M318.528,215.683c18.384-1.098,36.549-2.441,54.88-3.631c8.68,2.869,17.418,6.518,25.597,10.74 c-17.837,1.343-35.594,2.652-53.361,4.665C336.392,224.627,327.606,219.353,318.528,215.683z" fill="#ea6c6c"></path> <path d="M194.105,413.988c21.203,1.259,42.037,2.707,63.194,3.958c9.208,4.09,18.191,9.193,27.174,13.835 C253.54,428.061,221.487,431.178,194.105,413.988z" fill="#ea6c6c"></path> <path d="M193.457,159.76c-8.106,5.151,7.426-34.762,6.334-39.445c0.371-3.097-6.644,5.376-7.878,5.906 c-13.934,11.501-26.437,25.807-41.748,35.184c1.608-12.614,14.066-18.573,22.157-27.126c7.678-6.895,15.357-13.788,23.114-20.594 c2.61-3.024,7.341-4.646,7.962-8.933c-0.321-2.836,2.098-3.252,4.528-3.641C203.627,120.669,195.978,140.259,193.457,159.76z" fill="#DE746B"></path> <path d="M92.699,385.663c41.385-30.036,81.346-64.897,123.469-92.599c-39.164,33.618-83.358,67.437-124.639,97.555 C91.804,388.939,92.143,387.276,92.699,385.663z" fill="#df6dd0"></path> <path d="M352.305,377.903c-16.269,0.851-32.554-0.47-48.807-0.298c-9.438-1.769-17.619-8.107-26.666-11.537 C302.756,366.7,328.911,365.117,352.305,377.903z" fill="#ea6c6c"></path> <path d="M256.163,416.563c-0.933-0.707-0.633-1.752-0.454-2.555c2-10.902,5.059-21.394,8.157-32.07 c-14.304,11.037-28.79,21.776-43.134,32.701c-1.865-0.096-3.73-0.192-5.595-0.287c-0.314-0.351-0.81-0.07-1.324-0.426 c17.339-15.024,37.536-28.327,54.155-43.281c1.018-2.508,2.934-10.695,6.53-6.926c-5.168,1.077-8.279,24.45-10.826,30.192 c-2.037,7.266-4.092,14.527-6.112,21.798C257.338,416.509,256.929,416.766,256.163,416.563z" fill="#df6dd0"></path> <path d="M91.529,403.997c32.186,1.483,35.854-1.134,65.583,14.119C129.429,418.05,115.876,419.499,91.529,403.997z" fill="#ea6c6c"></path> <path d="M242.83,231.543c33.938-30.998,68.372-61.518,102.016-92.812c2.021-0.4,4.047-0.766,6.11-0.876 c-35.925,32.14-72.643,65.484-108.988,96.681C241.591,233.348,241.844,232.34,242.83,231.543z" fill="#df6dd0"></path> <path d="M148.054,360.989c18.713,0.927,37.274,1.639,55.943,2.932c2.274,0.227-1.435,6.136-1.336,7.895 c-2.742,2.899-15.561-0.079-20.301,0.499C170.02,372.947,159.407,364.934,148.054,360.989z" fill="#ea6c6c"></path> <path d="M322.825,364.278c7.275-24.876,12.643-50.954,22.729-74.792c3.057-0.119,3.029-0.128,2.06,2.78 c-4.674,14.027-8.734,28.241-12.887,42.427c-2.781,9.5-5.542,19.007-8.282,28.519C326.124,365.004,324.099,364.086,322.825,364.278 z" fill="#DE746B"></path> <path d="M94.879,355.376c6.97-8.655,18.462-15.725,26.868-23.912c15.742-11.929,30.091-29.585,46.884-38.338 c-22.997,21.461-47.809,41.06-71.008,62.364C96.707,355.453,95.793,355.415,94.879,355.376z" fill="#df6dd0"></path> <path d="M202.048,102.636c-15.038,13.789-33.488,29.9-47.97,44.912C154.788,139.28,193.412,102.188,202.048,102.636 z" fill="#df6dd0"></path> <path d="M130.845,403.731c-7.487,2.735,4.174-27.225,4.505-31.132c1.879-2.889,2.148-16.086,6.639-13.799 C138.229,373.75,134.212,388.754,130.845,403.731z" fill="#df6dd0"></path> <path d="M125.244,245.423c-5.863-5.407-12.219-9.881-18.488-14.768 C133.659,229.779,130.798,223.126,125.244,245.423z" fill="#ea6c6c"></path> <path d="M76.553,355.998c5.887,0.647,11.391,0.979,16.894,1.278c2.968,0.335-0.56,5.786-0.268,7.875 C93.305,368.591,79.001,356.677,76.553,355.998z" fill="#ea6c6c"></path> <path d="M166.808,291.627c-1.198-0.797-5.196,0.97-4.896-1.286c4.352-21.394,11.023-42.341,14.833-63.804 c0.049-1.089,0.577-0.679,1.084-0.426c8.533,4.346,17.181,8.46,25.867,12.49c1.08,0.499,1.315,1.018,0.992,2.145 c-4.208,16.277-8.332,32.648-11.307,49.189c-0.057,0.523-0.211,0.908-0.807,0.961C183.994,291.635,175.411,291.03,166.808,291.627z " fill="#f50000"></path> <path d="M179.734,226.11c20.722-1.153,41.216-3.526,61.914-4.672c1.852-0.106,1.891-0.069,1.459,1.687 c-4.476,20.116-1.817,10.815-25.21,14.992C204.198,241.209,192.435,230.502,179.734,226.11z" fill="#ea6c6c"></path> <path d="M246.172,218.955c-1.362-2.484-3.956-1.546-6.106-1.366c-21.576,2.625-43.711,2.235-64.989,6.537 c-6.814,21.741-10.401,44.445-16.471,66.435c-4.119,6.94,30.424,1.357,35.171,2.741c6.271-0.961,30.257,2.472,32.52-2.268 C233.416,267.31,240.605,242.896,246.172,218.955z M193.033,288.851c-0.056,0.505-0.204,0.876-0.78,0.927 c-7.579,0.604-15.222,0.304-22.825,0.553c-1.125-0.202-7.539,0.862-6.772-1.088c5.051-20.011,9.538-44.145,15.363-62.002 C217.001,247.238,202.477,228.488,193.033,288.851z M231.568,260.481c-12.008,37.047,3.034,26.937-35.629,29.216 c2.799-15.297,7.869-30.115,11.088-45.345c0.561-2.422,0.521-2.457,3.137-2.717c9.163-0.963,18.077-1.555,27.244-2.911 C235.44,246.049,233.489,253.261,231.568,260.481z M241.268,223.536c-4.158,18.97-1.956,10.192-23.742,14.119 c-13.085,2.883-24.007-7.216-35.94-11.308c19.516-1.086,38.816-3.32,58.308-4.4C241.638,221.847,241.675,221.881,241.268,223.536z" fill="#3F3756"></path> <path d="M243.421,230.89c-0.003,0.015-0.008,0.03-0.011,0.045l0,0c0.011-0.01,0.021-0.019,0.032-0.028 C243.435,230.903,243.428,230.895,243.421,230.89z" fill="#3F3756"></path> <path d="M427.128,140.52c-29.083-12.961-21.265-16.899-54.039-9.671c0.837-7.367,17.756-49.81,10.48-50.571 c-10.472-4.658-21.921-15.084-33.388-15.099c-16.379,3.639-32.781,7.176-49.156,10.829c-7.518,2.847-22.145,2.144-25.542,10.235 c-5.469,20.215-10.31,40.591-15.742,60.814c-0.237,0.881-0.589,1.238-1.496,1.343c-8.951,1.377-17.696,2.519-26.807,3.665 c0.603-6.959,12.058-36.449,6.129-38.651c-9.87-4.984-19.476-13.368-30.408-14.967c-14.764,3.713-29.732,6.621-44.222,11.418 c-4.242,2.06-4.05,8.155-5.809,12.046c-4.07,13.639-7.956,27.329-11.463,41.125c-0.212,0.835-0.56,1.22-1.4,1.329 c-6.734,2.263-27.164,1.974-28.96,9.011c-4.641,18.686-9.987,37.205-13.783,56.091c27.498,31.091,26.042-2.102,11.822,60.81 c-0.324,1.354-0.764,1.675-2.076,1.682c-4.702,0.776-26.697-1.702-26.386,3.387c-4.737,19.32-9.681,38.608-13.77,58.073 c-0.242,1.4-0.052,2.396,1.286,3.331c28.318,18.728,18.676,6.637,13.13,44.471c-0.975,2.934,2.406,3.751,4.362,4.98 c23.222,12.018,25.634,15.896,52.787,15.279c4.832-0.668,17.727,2.557,19.883-2.343c3.701-14.248,7.43-28.487,11.105-42.74 c1.93-2.855,19.852,0.593,24.674,0.039c1.058,0.052,1.359,0.31,1.065,1.462c-2.838,11.422-5.351,22.924-8.064,34.376 c23.734,23.805,63.189,18.242,94.904,22.369c6.14,3.455,14.345-45.23,17.513-51.693c0.308-1.158,0.837-1.331,1.885-1.312 c12.617,0.222,25.237,0.219,37.855,0.143c6.715-0.473,16.262,1.995,17.37-7.131c4.51-14.133,8.339-28.465,12.446-42.716 c0.721-5.995,9.787-26.227,6.637-29.557c-9.637-6.048-19.613-12.252-29.879-16.944c-2.421-0.789-20.319,1.489-18.455-1.496 c5.604-17.102,8.135-37.062,15.174-52.797c18.431-1.154,36.765-3.476,55.191-4.633c2.373,0.204,2.776-2.667,3.443-4.391 c7.866-26.021,16.629-51.773,23.402-78.122C429.267,142.289,428.745,141.219,427.128,140.52z M354.554,71.198 c0.265-0.996,0.513-1.325,1.587-0.752c8.348,4.459,16.723,8.869,25.108,13.258c0.762,0.398,0.779,0.808,0.518,1.501 c-4.695,12.447-8.023,25.315-11.716,38.071c-1.434,2.672-0.65,7.934-3.988,8.808c-4.285-0.289-30.017,7.22-29.232,2.634 C342.721,113.591,349.016,92.467,354.554,71.198z M209.1,106.321c0.653-1.142,0.228-4.752,2.172-3.82 c8.059,4.217,15.677,9.224,23.731,13.492c0.659,0.369,1.142,0.579,0.897,1.615c-2.607,11.019-5.204,22.04-8.121,32.982 c-0.735,2.757-0.738,2.663-3.612,3.019c-3.961-0.204-28.078,5.669-27.773,2.305C200.633,139.383,204.862,122.851,209.1,106.321z M108.916,231.596c22.601-0.649,20.874-6.671,15.889,12.692C119.767,239.641,114.305,235.796,108.916,231.596z M91.726,365.754 c-5.123-3.314-9.947-6.528-15.174-9.756c3.106,1.171,19.352-0.207,18.033,2.804C93.632,360.225,94.021,367.355,91.726,365.754z M151.948,417.71c-27.275-0.302-33.825,1.212-58.159-13.318c29.581,1.258,34.656-0.818,61.916,13.33 C154.276,417.722,153.107,417.788,151.948,417.71z M171.092,374.255c-4.793,14.097-7.989,28.48-11.993,42.874 c-35.967-18.918-27.067-3.888-18.902-43.124c1.197-2.133,1.819-12.472,4.206-11.716c8.61,3.572,17.485,6.541,25.965,10.381 C171.048,373.047,171.412,373.376,171.092,374.255z M182.081,372.062c-11.757,0.604-21.874-7.032-32.692-10.792 c17.832,0.883,35.522,1.563,53.312,2.794c2.149,0.222-1.354,5.841-1.274,7.523C198.565,374.367,186.763,371.502,182.081,372.062z M275.799,430.514c-26.515-2.664-53.614-1.148-76.905-15.956c19.845,1.178,39.345,2.534,59.147,3.704 c8.618,3.828,17.025,8.605,25.433,12.949C280.707,430.959,278.253,430.732,275.799,430.514z M299.698,383.362 c-4.216,15.461-8.292,30.961-12.799,46.34c-0.217,0.773-0.502,0.766-1.106,0.412c-8.171-4.784-16.548-9.19-24.943-13.562 c-0.678-0.353-0.899-0.734-0.688-1.507c4.377-15.55,7.786-31.432,13.28-46.624c0.323-0.885,0.737-1.172,1.729-0.719 c8.383,4,17.338,7.469,25.576,11.414C300.371,380.646,300.065,382.012,299.698,383.362z M322.563,377.574 c-22.415,0.861-24.301-1.809-43.832-11.201c24.62,0.599,49.458-0.903,71.674,11.239 C341.119,378.069,331.842,377.872,322.563,377.574z M350.866,291.887c0.422-1.128,0.924-0.657,1.504-0.326 c7.694,4.92,17.032,8.731,23.948,14.156c-6.482,23.108-13.47,46.094-20.129,69.153c-0.266,0.936-0.662,1.083-1.568,0.742 c-8.307-3.124-16.624-6.222-24.961-9.267C333.988,342.473,343.331,316.061,350.866,291.887z M332.553,290.154 c4.058-0.134,8.133,0.271,12.201,0.438c3.004-0.117,2.976-0.126,2.024,2.732c-7.555,23.046-13.973,46.441-20.8,69.71 c-0.315,1.762-2.304,0.858-3.557,1.047c-15.655-0.209-31.196-0.335-46.903-0.831c-2.995-0.824-4.667,1.075-5.146,3.872 c-4.897,15.597-8.811,31.38-13.383,47.131c-12.732,1.683-28.182-1.538-41.65-1.447c0,0,0,0-0.001,0c0,0,0,0,0,0 c-6.824-0.288-13.357-0.772-20.248-0.813c3.333-16.467,8.169-32.582,12.472-48.812c2.139-5.525-12.321-1.84-15.352-3.398 c-16.902,0.56-34.593-3.715-51.202-0.86c0,0,0,0,0,0c-3.694,14.689-7.642,29.432-10.95,44.148 c-13.278,0.543-26.858-1.258-40.252-0.802c-2.566-0.722,1.847-10.026,1.867-12.574c0,0,0,0,0,0h0 c2.476-10.804,4.532-21.716,6.748-32.587c0.188-0.908,0.008-1.488-0.762-1.929c0,0,0,0,0,0c-7.603-0.341-15.157-1.319-22.786-1.402 c-1.295-0.033-0.554-0.955-0.503-1.361c3.831-18.634,9.622-36.862,13.866-55.424c34.669-6.999,23.246,8.535,34.254-29.827 c0,0,0,0,0,0c0,0,0,0,0,0c11.259-51.222,19.887-37.862-16.986-40.387c3.524-13.989,7.391-27.884,11.104-41.82 c1.716-3.693,1.07-9.845,4.328-12.196c8.235-1.735,16.549-3.001,24.87-4.232c3.253-0.389,3.428-4.064,4.421-6.514c0,0,0,0,0,0 c0.765-2.724,1.531-5.449,2.297-8.173c0,0,0,0,0,0c0.516-1.815,1.032-3.629,1.548-5.444h0c0.316-1.669,0.741-3.307,1.362-4.891l0,0 c11.271-42.885-0.048-25.288,51.548-40.736c-4.224,19.217-11.739,38.466-14.217,57.627c18.437-0.691,36.64-4.646,55-6.448 c0,0,0,0-0.001,0c0,0,0,0,0,0c4.858-1.598,12.987,0.631,15.644-4.505c6.572-20.675,11.44-41.811,16.781-62.819 c20.889-7.239,44.517-10.454,66.446-15.786l0,0c0,0,0,0,0,0c1.187-0.273,2.374-0.547,3.795-0.875 c-0.983,8.499-22.769,71.729-15.218,71.07c4.769-0.962,9.609-1.575,14.437-2.16h0c14.893-2.784,30.03-3.835,44.824-7.212 c-5.458,24.186-16.193,50.947-22.757,76.172c-18.469,4.257-39.959,2.823-59.404,5.623c0,0,0,0,0,0 c-6.897,24.629-15.966,50.774-19.863,75.788C305.562,291.551,319.248,289.993,332.553,290.154z M341.188,230.416 c-6.199,18.129-10.854,36.768-15.632,55.318c-1.723,2.469-8.253,0.381-11.31,1.04c0,0.004,0,0.008,0,0.011 c-2.486-0.729-19.839,1.626-18.363-0.625c3.274-12.68,6.627-25.339,9.914-38.015c2.649-10.367,5.425-20.702,7.895-31.113 c0.203-0.87,0.474-1.286,1.459-0.772c8.276,4.319,16.823,8.081,25.2,12.193C341.314,228.926,341.586,229.354,341.188,230.416z M390.85,222.988c-15.798,0.82-31.651,2.959-47.351,3.918c-8.102-3.671-16.207-7.335-24.311-11.001 c17.385-1.039,34.563-2.308,51.897-3.433c8.208,2.713,16.472,6.163,24.206,10.156C393.721,222.756,392.287,222.896,390.85,222.988z M424.694,145.113c-8.85,25.186-15.984,51.239-24.366,76.428c-8.215-4.015-16.581-7.651-24.962-11.292 c-0.882-0.384-0.96-0.761-0.677-1.642c8.229-25.604,16.368-51.89,23.578-77.678c8.418,4.051,17.095,8.887,25.684,12.921 C424.507,144.122,424.998,144.266,424.694,145.113z" fill="#3F3756"></path> <path d="M229.075,283.179c-0.022-0.01-0.046-0.03-0.069-0.042c-0.005,0.033-0.008,0.067-0.014,0.101h0h0 C229.019,283.218,229.048,283.199,229.075,283.179z" fill="#3F3756"></path> </g> </g></svg>