<svg xmlns="http://www.w3.org/2000/svg" shape-rendering="geometricPrecision" text-rendering="geometricPrecision" image-rendering="optimizeQuality" fill-rule="evenodd" clip-rule="evenodd" viewBox="0 0 512 512"><path fill="#F50" d="M256 0c141.385 0 256 114.615 256 256S397.385 512 256 512 0 397.385 0 256 114.615 0 256 0z"/><path fill="#fff" d="M418.489 276.191c-1.363 24.352-21.689 43.295-46.074 42.958H261.672c-5.072-.053-9.167-4.167-9.195-9.234V190.674a10.162 10.162 0 016.117-9.709s10.187-7.064 31.642-7.064a72.59 72.59 0 0137.237 10.231 73.684 73.684 0 0134.669 48.018 42.73 42.73 0 0111.746-1.6 44.34 44.34 0 0131.992 13.354 44.33 44.33 0 0112.613 32.289l-.004-.002zm-179.832-77.978c3.339 40.444 5.766 77.33 0 117.641a3.595 3.595 0 01-3.573 3.202 3.6 3.6 0 01-3.577-3.202c-5.377-39.968-3.034-77.547 0-117.641a3.585 3.585 0 011.667-3.439 3.619 3.619 0 013.823 0 3.594 3.594 0 011.66 3.439zm-22.408 117.681a3.765 3.765 0 01-3.725 3.202 3.762 3.762 0 01-3.729-3.202 449.585 449.585 0 010-103.805 3.773 3.773 0 013.749-3.372 3.778 3.778 0 013.75 3.372 403.805 403.805 0 01-.048 103.805h.003zm-22.455-107.317c3.637 37.059 5.291 70.261-.04 107.232a3.601 3.601 0 01-3.598 3.597 3.602 3.602 0 01-3.597-3.597c-5.159-36.496-3.427-70.65 0-107.232a3.626 3.626 0 013.617-3.239 3.63 3.63 0 013.618 3.239zm-22.488 107.364a3.694 3.694 0 01-3.67 3.28 3.675 3.675 0 01-3.657-3.28 379.712 379.712 0 010-96.92 3.728 3.728 0 017.454 0 354.234 354.234 0 01-.132 96.92h.005zm-22.46-72.687c5.681 25.132 3.121 47.33-.213 72.945a3.516 3.516 0 01-3.472 2.962 3.514 3.514 0 01-3.465-2.962c-3.034-25.265-5.549-47.985-.217-72.953a3.689 3.689 0 013.684-3.684 3.685 3.685 0 013.685 3.689l-.002.003zm-22.408-3.817c5.204 25.747 3.512 47.548-.133 73.382-.43 3.817-6.971 3.857-7.321 0-3.295-25.444-4.855-47.897-.133-73.382a3.825 3.825 0 013.797-3.408 3.806 3.806 0 013.79 3.408zm-22.621 12.481c5.457 17.078 3.593 30.954-.217 48.46a3.552 3.552 0 01-3.532 3.162 3.565 3.565 0 01-3.54-3.162c-3.294-17.163-4.629-31.337-.297-48.46a3.803 3.803 0 013.789-3.407 3.805 3.805 0 013.79 3.407h.007z"/></svg>