<svg height="200px" width="200px" version="1.1" id="Layer_1" xmlns="http://www.w3.org/2000/svg" xmlns:xlink="http://www.w3.org/1999/xlink" viewBox="0 0 512 512" xml:space="preserve" fill="#000000"><g id="SVGRepo_bgCarrier" stroke-width="0"></g><g id="SVGRepo_tracerCarrier" stroke-linecap="round" stroke-linejoin="round"></g><g id="SVGRepo_iconCarrier"> <path style="fill:#FD5E95;" d="M383.246,91.026c-1.042-2.917-3.671-4.974-6.753-5.282l-80.888-8.089L263.287,4.941 c-2.765-6.219-11.889-6.221-14.654,0l-32.318,72.714l-80.888,8.089c-6.589,0.66-9.566,8.954-4.872,13.648l56.833,56.833 l-16.264,81.317c-1.25,6.25,5.287,11.493,11.118,8.899l73.716-32.762l73.716,32.762c5.839,2.596,12.368-2.654,11.118-8.899 l-16.264-81.317l56.833-56.833C383.555,97.2,384.288,93.943,383.246,91.026z"></path> <path style="fill:#D14D7B;" d="M168.585,96.922l55.931-6.895c2.934-0.361,5.473-2.213,6.715-4.895l34.537-74.61l-2.48-5.58 c-2.765-6.219-11.889-6.221-14.654,0l-32.318,72.714l-80.888,8.089c-6.589,0.66-9.566,8.954-4.872,13.648l56.833,56.833 l-16.264,81.317c-1.25,6.25,5.287,11.493,11.118,8.899l1.603-0.712l19.775-88.622c0.637-2.857-0.23-5.84-2.3-7.91l-37.738-37.738 C158.547,106.42,161.514,97.794,168.585,96.922z"></path> <path style="fill:#F9D84E;" d="M219.767,260.174c-1.727-2.467-4.692-3.757-7.673-3.344l-67.403,9.361l-46.344-55.828 c-4.062-4.892-12.087-3.083-13.839,2.861c-0.055,0.186-0.123,0.363-0.166,0.558l-15.428,70.987L5.134,308.576 c-5.98,2.231-6.984,10.561-1.697,14.148l59.821,40.567l5.248,73.107c0.462,6.423,8.312,9.726,13.223,5.507l56.575-48.611 l64.396,16.099c6.228,1.56,11.778-4.814,9.384-10.769l-26.212-65.211l34.409-64.882 C221.692,265.867,221.494,262.641,219.767,260.174z"></path> <path style="fill:#FFC20D;" d="M32.594,312.563l45.332-16.574c2.79-1.02,4.851-3.415,5.444-6.326l15.918-78.17l-0.941-1.133 c-4.062-4.892-12.087-3.083-13.839,2.861c-0.055,0.186-0.123,0.363-0.166,0.558l-15.428,70.987L5.134,308.575 c-5.98,2.231-6.984,10.561-1.697,14.148l59.821,40.567l5.248,73.107c0.462,6.423,8.312,9.726,13.223,5.507l0.398-0.342 l-5.135-80.818c-0.175-2.754-1.669-5.254-4.01-6.715l-41.978-26.175C24.96,324.083,25.903,315.009,32.594,312.563z"></path> <path style="fill:#45CAE0;" d="M511.943,315.132c-0.357-2.978-2.346-5.509-5.156-6.558l-63.782-23.808l-15.428-70.987 c-1.39-6.393-9.816-8.468-14.005-3.419l-46.344,55.828l-67.404-9.361c-6.347-0.886-11.193,6.027-8.186,11.698l34.409,64.882 l-26.212,65.211c-2.393,5.957,3.155,12.327,9.384,10.769l64.395-16.099l56.575,48.611c4.91,4.22,12.76,0.916,13.222-5.507 l5.249-73.107l59.82-40.567C510.965,321.038,512.3,318.109,511.943,315.132z"></path> <path style="fill:#0AADBF;" d="M324.636,274.15l45.415,5.401c2.857,0.34,5.692-0.779,7.547-2.977l50.594-59.966l-0.615-2.828 c-1.39-6.393-9.816-8.468-14.005-3.419l-46.344,55.828l-67.404-9.361c-6.347-0.886-11.192,6.027-8.186,11.698l34.409,64.882 l-26.212,65.211c-2.393,5.957,3.154,12.326,9.383,10.77l28.732-73.686c0.888-2.278,0.759-4.828-0.355-7.004l-21.582-42.161 C312.894,280.446,317.84,273.341,324.636,274.15z"></path> <g> <path style="fill:#E9E9EA;" d="M486.878,94.79c-14.443,0-26.192-11.75-26.192-26.192c0-4.428-3.589-8.018-8.018-8.018 c-4.429,0-8.018,3.59-8.018,8.018c0,14.442-11.749,26.192-26.192,26.192c-4.429,0-8.018,3.59-8.018,8.018s3.589,8.018,8.018,8.018 c14.443,0,26.192,11.75,26.192,26.192c0,4.428,3.589,8.018,8.018,8.018c4.429,0,8.018-3.59,8.018-8.018 c0-14.442,11.749-26.192,26.192-26.192c4.429,0,8.018-3.59,8.018-8.018S491.307,94.79,486.878,94.79z"></path> <path style="fill:#E9E9EA;" d="M290.17,461.478c-14.443,0-26.192-11.75-26.192-26.192c0-4.428-3.589-8.018-8.018-8.018 c-4.428,0-8.018,3.59-8.018,8.018c0,14.442-11.75,26.192-26.192,26.192c-4.428,0-8.018,3.59-8.018,8.018 c0,4.428,3.59,8.018,8.018,8.018c14.442,0,26.192,11.75,26.192,26.192c0,4.428,3.59,8.018,8.018,8.018 c4.429,0,8.018-3.59,8.018-8.018c0-14.442,11.749-26.192,26.192-26.192c4.429,0,8.018-3.59,8.018-8.018 C298.188,465.068,294.599,461.478,290.17,461.478z"></path> <path style="fill:#E9E9EA;" d="M84.911,94.79c-14.442,0-26.192-11.75-26.192-26.192c0-4.428-3.59-8.018-8.018-8.018 s-8.018,3.59-8.018,8.018c0,14.442-11.75,26.192-26.192,26.192c-4.428,0-8.018,3.59-8.018,8.018s3.59,8.018,8.018,8.018 c14.442,0,26.192,11.75,26.192,26.192c0,4.428,3.59,8.018,8.018,8.018s8.018-3.59,8.018-8.018c0-14.442,11.75-26.192,26.192-26.192 c4.428,0,8.018-3.59,8.018-8.018S89.339,94.79,84.911,94.79z"></path> </g> </g></svg>