<svg version="1.1" id="Layer_1" xmlns="http://www.w3.org/2000/svg" xmlns:xlink="http://www.w3.org/1999/xlink" viewBox="0 0 562 562" xml:space="preserve" fill="#000000"><g id="SVGRepo_bgCarrier" stroke-width="0"></g><g id="SVGRepo_tracerCarrier" stroke-linecap="round" stroke-linejoin="round"></g><g id="SVGRepo_iconCarrier"> <circle style="fill:#25B6D2;" cx="280.92" cy="280.336" r="256"></circle> <g> <rect x="27.784" y="159.632" style="fill:#FFFFFF;" width="505.328" height="32"></rect> <rect x="26.92" y="369.04" style="fill:#FFFFFF;" width="510.16" height="32"></rect> <rect x="24.92" y="264.336" style="fill:#FFFFFF;" width="512" height="32"></rect> </g> <g> <g> <path style="fill:#FFFFFF;" d="M263.208,556.832c-147.136-274.88-6.064-543.824,0.016-555.152l28.192,15.136 c-1.392,2.624-138.864,265.504,0.016,524.928L263.208,556.832z"></path> </g> </g> <g> <g> <path style="fill:#FFFFFF;" d="M231.432,562c-5.888-3.664-144.304-91.536-144.304-281.008S225.032,3.648,230.888,0L247.8,27.184 l-8.448-13.6l8.464,13.584c-5.232,3.28-128.672,82.64-128.672,253.808c0,171.152,123.888,250.528,129.168,253.808L231.432,562z"></path> </g> </g> <g> <g> <path style="fill:#FFFFFF;" d="M298.632,556.832l-28.224-15.088c139.12-259.904,1.424-522.304,0.016-524.912L298.616,1.68 C304.696,13.008,445.784,281.968,298.632,556.832z"></path> </g> </g> <g> <g> <path style="fill:#FFFFFF;" d="M330.408,562l-16.88-27.2c5.28-3.28,129.168-82.656,129.168-253.808 c0-171.872-127.376-253.008-128.672-253.808L330.936,0c5.856,3.664,143.76,91.536,143.76,280.992 C474.696,470.464,336.296,558.336,330.408,562z"></path> </g> </g> </g></svg>