<svg fill="#000000" viewBox="0 0 24 24" id="link-alt-2" data-name="Flat Color" xmlns="http://www.w3.org/2000/svg" class="icon flat-color"><g id="SVGRepo_bgCarrier" stroke-width="0"></g><g id="SVGRepo_tracerCarrier" stroke-linecap="round" stroke-linejoin="round"></g><g id="SVGRepo_iconCarrier"><path id="secondary" d="M7,21.54a4.54,4.54,0,0,1-3.21-7.75,1,1,0,0,1,1.42,1.42,2.51,2.51,0,0,0,0,3.58,2.59,2.59,0,0,0,3.58,0l5-5a2.53,2.53,0,0,0,0-3.58,1,1,0,0,1,1.42-1.42,4.54,4.54,0,0,1,0,6.42l-5,5A4.55,4.55,0,0,1,7,21.54Z" style="fill: #2c48ba;"></path><path id="primary" d="M9.5,15.5a1,1,0,0,1-.71-.29,4.54,4.54,0,0,1,0-6.42l5-5a4.54,4.54,0,1,1,6.42,6.42,1,1,0,0,1-1.42-1.42,2.51,2.51,0,0,0,0-3.58,2.59,2.59,0,0,0-3.58,0l-5,5a2.53,2.53,0,0,0,0,3.58,1,1,0,0,1,0,1.42A1,1,0,0,1,9.5,15.5Z" style="fill: #000000;"></path></g></svg>